<?xml version="1.0" standalone="no"?>
<!DOCTYPE svg PUBLIC "-//W3C//DTD SVG 1.1//EN" "http://www.w3.org/Graphics/SVG/1.1/DTD/svg11.dtd" >
<svg xmlns="http://www.w3.org/2000/svg" xmlns:xlink="http://www.w3.org/1999/xlink" version="1.1">
<metadata>
Created by FontForge 20150318 at Wed Apr 22 03:43:40 2015
 By uniteet7
KhrysBosland
</metadata>
<defs>
<font id="KBGobbleDay" horiz-adv-x="649" >
  <font-face 
    font-family="KBGobbleDay"
    font-weight="500"
    font-stretch="normal"
    units-per-em="1000"
    panose-1="2 0 6 3 0 0 0 0 0 0"
    ascent="800"
    descent="-200"
    x-height="479"
    cap-height="751"
    bbox="-86.0435 -208 1025.09 815"
    underline-thickness="50"
    underline-position="-100"
    unicode-range="U+0020-3000"
  />
<missing-glyph horiz-adv-x="364" 
d="M66 33h199v600h-199v-600zM33 0v666h265v-666h-265z" />
    <glyph glyph-name=".notdef" horiz-adv-x="364" 
d="M66 33h199v600h-199v-600zM33 0v666h265v-666h-265z" />
    <glyph glyph-name=".null" horiz-adv-x="0" 
 />
    <glyph glyph-name="nonmarkingreturn" horiz-adv-x="333" 
 />
    <glyph glyph-name="space" unicode=" " horiz-adv-x="300" 
 />
    <glyph glyph-name="exclam" unicode="!" horiz-adv-x="229" 
d="M159 716q0 -266 29 -498q2 -16 -8 -28.5t-25.5 -14.5t-28 8t-14.5 25q-29 229 -29 508q0 16 11 27t27 11t27 -11t11 -27zM231 51q0 -26 -18 -44t-44 -18t-44 18t-18 44t18 44t44 18t44 -18t18 -44z" />
    <glyph glyph-name="quotedbl" unicode="&#x22;" horiz-adv-x="276" 
d="M124 715q-33 -140 -36 -259q0 -16 -11.5 -26.5t-27.5 -10.5t-26.5 11.5t-10.5 27.5q3 127 38 275q4 15 17 23.5t28.5 4.5t24 -17t4.5 -29zM275 711q-4 -16 -17.5 -58.5t-19.5 -63t-14 -53.5t-11 -61q-2 -16 -14.5 -25.5t-28.5 -7.5t-25.5 14.5t-7.5 28.5q4 31 12.5 67
t15 58t20.5 66l18 57q4 15 18 22.5t29 3t22.5 -18.5t2.5 -29z" />
    <glyph glyph-name="numbersign" unicode="#" horiz-adv-x="626" 
d="M391 398q19 59 46 133q-84 10 -161 14q-27 -82 -41 -128q81 -8 156 -19zM125 623q47 1 97 0q22 64 35 106q4 15 18 22.5t29 3t22.5 -18.5t2.5 -29l-28 -88q78 -4 163 -14l43 115q6 15 20 21.5t29 1t21.5 -19.5t1.5 -29l-37 -99l53 -7q15 -3 24.5 -15.5t7 -28t-15 -25
t-28.5 -7.5q-35 6 -68 10q-29 -77 -48 -137q38 -6 86 -16q15 -3 23.5 -16t5.5 -28.5t-16 -24t-29 -5.5q-64 12 -94 17q-42 -139 -59 -257q-3 -15 -15.5 -24.5t-28 -7t-25 15t-7.5 28.5q18 118 60 257q-75 11 -155 19q-22 -81 -33 -152q-3 -15 -15.5 -24.5t-28 -7t-25 15
t-7.5 28.5q11 69 32 147q-24 2 -64 5q-15 1 -25.5 13t-9.5 27.5t13 26t28 9.5l79 -6q15 49 40 122q-36 1 -70 0q-16 0 -27.5 10.5t-11.5 26.5t10.5 27.5t26.5 11.5z" />
    <glyph glyph-name="dollar" unicode="$" horiz-adv-x="551" 
d="M254 437q3 112 2 187q-50 -11 -78 -45.5t-20 -85.5q2 -18 41 -35q18 -9 54 -20zM328 331q-5 -193 -1 -304q59 1 98 21.5t48 54.5q6 20 -2 71q-9 60 -45 96q-37 36 -98 61zM331 700q58 -9 107.5 -43.5t77.5 -92.5q7 -15 2 -29.5t-19.5 -21.5t-29 -2t-21.5 19
q-36 75 -116 93q1 -82 -2 -211q39 -14 69.5 -30.5t63.5 -42.5t54.5 -65t29.5 -88q10 -67 0 -103q-13 -45 -48.5 -75.5t-77 -42.5t-90.5 -13l2 -33q1 -16 -9 -28t-26 -13t-28 9t-13 26q-2 22 -3 44q-74 12 -136 46.5t-87 88.5q-5 10 -8 21.5t-3.5 23.5t-0.5 20t1 19.5t1 13.5
q1 16 12.5 26.5t27.5 9.5t26.5 -12.5t9.5 -27.5q0 -7 -1 -17.5t-1 -14.5v-11q0 -6 1 -10t3 -9q15 -30 56 -54t96 -35q-4 110 1 305v18l-23 7q-39 13 -62 24q-76 34 -85 94q-12 87 38.5 145t128.5 72q3 0 6 1q-1 25 -3 60q-1 16 9.5 27.5t26.5 12.5t27.5 -9.5t12.5 -26.5
q2 -32 3 -65z" />
    <glyph glyph-name="percent" unicode="%" horiz-adv-x="732" 
d="M256 666q-48 14 -84 1t-59 -45q-23 -31 -21 -65t30 -57q26 -21 58.5 -21t58 16t40 46.5t7.5 66.5q-3 14 -30 58zM301 725q11 -5 16 -14q2 -2 8.5 -12.5t10.5 -16.5l9 -18q6 -11 9.5 -21t5.5 -21q8 -37 -0.5 -74t-29 -66t-50.5 -49.5t-63.5 -28.5t-71.5 1t-71 37
q-37 30 -50.5 71t-5 80t32.5 73t59.5 55.5t81 27t95.5 -12.5q8 -4 14 -11zM622 260q18 2 31 -12q1 -1 8.5 -9.5t10.5 -11.5t10 -11t10.5 -13t10 -13.5t10 -15.5t7.5 -16t6.5 -18t4.5 -18q9 -56 -10 -102.5t-59 -72.5t-90 -25.5t-98 28.5q-46 27 -64 75t-8.5 97t40.5 85
q30 34 68 46q37 12 86 15q14 1 26 -8zM616 681q-22 -41 -62 -99q-59 -85 -63 -92l-81 -130l-67 -113q-45 -77 -73.5 -138.5t-51.5 -125.5q-6 -15 -20 -21.5t-29 -1t-21.5 19.5t-1.5 29q24 67 54.5 131.5t77.5 144.5l68 115l81 130q11 18 64 95q38 56 57 92q8 14 23 18.5
t29 -3t18.5 -22.5t-2.5 -29zM600 192q-38 -2 -61.5 -9.5t-38.5 -25.5q-29 -33 -25 -77.5t37 -63.5q31 -18 61 -18.5t47 12.5q47 31 35 100q-3 19 -15 36t-39 46h-1z" />
    <glyph glyph-name="ampersand" unicode="&#x26;" horiz-adv-x="585" 
d="M221 323q-23 -13 -36 -22q-42 -28 -63 -58t-22 -71q0 -25 1.5 -35t9.5 -22q19 -30 81 -52q103 -37 169 35q9 11 18 24q-21 24 -41 50l-52 68l-45 58zM473 131q45 -48 100 -95q12 -10 13 -26t-9 -28t-26 -13t-28 9q-49 43 -92 86q-7 -9 -14 -17q-100 -110 -251 -56
q-86 31 -119 82q-11 18 -16.5 36.5t-6 30t-0.5 32.5q1 66 33 111t86 81l33 21q-31 46 -49 85q-36 81 -9 148q31 77 125 89q65 8 102 -13q40 -22 57.5 -59.5t14.5 -79.5q-2 -38 -17.5 -74t-40.5 -61q-26 -27 -72 -57l14 -19l117 -150q17 43 30 97q4 15 17 23.5t28.5 4.5
t24 -17t4.5 -29q-19 -81 -49 -142zM242 424q40 25 63 48q34 36 36 87q3 48 -34 69q-15 8 -54 3q-50 -6 -64 -41q-16 -37 8 -88q16 -36 45 -78z" />
    <glyph glyph-name="quotesingle" unicode="'" horiz-adv-x="133" 
d="M134 697l-6 -69q-4 -47 -5.5 -67t-2.5 -64.5t3 -65.5q1 -16 -9 -28t-25.5 -13.5t-27.5 8.5t-14 25q-4 24 -3 72.5t2.5 70.5t6 69t5.5 68q1 15 13 25.5t27.5 9.5t26 -13t9.5 -28z" />
    <glyph glyph-name="parenleft" unicode="(" horiz-adv-x="319" 
d="M298 673q-61 -29 -107 -96t-71 -158q-25 -85 -28 -176t15 -157q30 -117 135 -208q12 -11 13 -26.5t-9.5 -27.5t-26 -13t-27.5 9q-123 107 -159 248q-20 78 -17 178q4 100 30 194q30 103 84.5 183t135.5 118q14 7 29 1.5t21.5 -19.5t1 -29t-19.5 -21z" />
    <glyph glyph-name="parenright" unicode=")" horiz-adv-x="244" 
d="M50 746q72 -50 119 -127.5t63.5 -163t11.5 -173.5q-5 -86 -30 -166q-36 -116 -131 -270q-8 -13 -23 -17t-28.5 4.5t-17.5 23.5t5 29q89 147 123 252q23 73 27 150.5t-11 151t-54 138.5t-98 106q-13 9 -15.5 24.5t6.5 28.5t24.5 15.5t28.5 -6.5z" />
    <glyph glyph-name="asterisk" unicode="*" horiz-adv-x="340" 
d="M157 482q-24 -41 -36 -66q-7 -14 -22 -19t-29 2t-19 22t2 29q9 19 53 95l-69 34q-14 6 -19.5 21t1 29t21.5 19.5t29 -1.5q46 -21 61 -29q0 3 0.5 7t0.5 14.5t1 23.5q1 15 12.5 26t27 10t26.5 -12.5t10 -27.5q-1 -11 -1 -22.5t-1 -13.5l6 3q50 29 74 41q15 7 29.5 2
t21.5 -19.5t2 -29t-19 -21.5t-69 -38l-39 -22q34 -59 58 -121q6 -15 0 -29.5t-21 -20t-29.5 0.5t-19.5 21q-19 48 -43 92z" />
    <glyph glyph-name="plus" unicode="+" horiz-adv-x="501" 
d="M235 310q7 147 17 225q2 16 15 25.5t28.5 7.5t25 -15t7.5 -28q-10 -77 -17 -210q46 3 151 8q16 1 27.5 -9.5t12.5 -26.5t-9.5 -27.5t-26.5 -12.5q-113 -6 -159 -8q-8 -138 -27 -232q-3 -15 -16 -23.5t-28.5 -5.5t-24 16t-5.5 29q17 83 25 211q-103 -7 -188 -17
q-15 -2 -27.5 8t-14.5 25.5t8 28t26 14.5q89 10 200 17z" />
    <glyph glyph-name="comma" unicode="," horiz-adv-x="168" 
d="M154 116q9 -37 12.5 -63t2 -60t-17 -64.5t-44.5 -57.5q-12 -11 -27.5 -10t-26.5 12.5t-10 27t12 26.5q34 31 38 72t-13 99q-4 15 4.5 28.5t23.5 17.5t28.5 -4.5t17.5 -23.5z" />
    <glyph glyph-name="hyphen" unicode="-" horiz-adv-x="293" 
d="M28 313q84 0 226 7q16 1 27.5 -9.5t12.5 -26.5t-9.5 -27.5t-26.5 -12.5q-145 -7 -230 -7q-16 0 -27 11t-11 27t11 27t27 11z" />
    <glyph glyph-name="period" unicode="." horiz-adv-x="177" 
d="M179 52q0 -25 -18 -43t-43 -18t-43 18t-18 43t18 43t43 18t43 -18t18 -43z" />
    <glyph glyph-name="slash" unicode="/" horiz-adv-x="308" 
d="M307 717q-149 -392 -247 -742q-5 -15 -18.5 -23t-28.5 -3.5t-23 18t-4 28.5q100 354 249 748q6 15 20.5 21.5t29 1t21 -20t1.5 -28.5z" />
    <glyph glyph-name="zero" unicode="0" horiz-adv-x="514" 
d="M348 710q16 2 29 -8q99 -74 128 -196q13 -54 10 -128q-3 -72 -21 -148q-43 -181 -135 -245q-49 -35 -140 -37q-60 -1 -98 17q-107 50 -139 199q-27 129 11 274q39 150 128 228q102 89 227 44zM333 634q-90 38 -162 -25q-71 -62 -105 -190q-33 -127 -9 -239t96 -147
q22 -10 64 -9q68 2 98 23q34 24 61 77t44 124q16 67 18 134q3 66 -7 106q-21 86 -87 143q-6 1 -11 3z" />
    <glyph glyph-name="one" unicode="1" horiz-adv-x="232" 
d="M233 644q-3 -53 -22 -169q-18 -113 -22 -163q-12 -126 -17 -316q0 -16 -11.5 -26.5t-27.5 -10.5t-26.5 11.5t-10.5 27.5q5 193 17 322q5 51 23 167q18 113 21 163q1 15 13 25.5t27.5 9.5t26 -13t9.5 -28z" />
    <glyph glyph-name="two" unicode="2" horiz-adv-x="583" 
d="M2 475q-1 4 -7.5 16.5t-9 19.5t-6 19.5t-3 26t4.5 29.5q13 55 64 89.5t116 48.5q55 15 120.5 8.5t104.5 -34.5q63 -47 74 -148q15 -136 -130 -301q-48 -55 -122 -123l-51 -46l190 16q129 10 196 16q15 1 27 -9t13.5 -25.5t-8.5 -27.5t-26 -14l-223 -18q-162 -14 -250 -22
q-16 -1 -28 9t-14 25q-1 8 2 16q-5 21 11 35l110 101q71 66 116 117q123 139 111 243q-7 67 -44 94q-22 17 -66 21t-96 -7t-84.5 -33.5t-38.5 -48.5q-2 -7 -2.5 -11t1 -9.5t2.5 -8.5l7 -13l9 -19q6 -15 0.5 -29.5t-20 -21t-29 -1t-21.5 19.5z" />
    <glyph glyph-name="three" unicode="3" horiz-adv-x="480" 
d="M-4 564q3 68 54 119t120 73q32 10 66 12t67.5 -4.5t63 -26.5t48.5 -52q33 -53 36 -107.5t-18.5 -100.5t-63.5 -83l6 -3q86 -49 104 -164q7 -51 -6 -94.5t-41.5 -72.5t-65.5 -46.5t-78 -20.5q-56 -6 -108.5 12t-93.5 65t-52 116q-3 15 6 28t24.5 15.5t28.5 -6.5t15 -25
q12 -69 61.5 -102.5t110.5 -27.5t97 46q36 39 26 101q-12 79 -66 110q-29 17 -69 19l-31 -5q-13 -1 -32 -2h-16q-4 0 -8 1q-8 2 -15 8q-11 9 -13 23q-3 15 6 28q6 8 15 13l6 2q2 1 5 1q39 8 76 8h2q22 6 28 9q63 40 79.5 96.5t-19.5 118.5q-21 34 -64 44t-95 -6
q-51 -16 -84.5 -50t-35.5 -73q-1 -16 -12.5 -26.5t-27.5 -9.5t-26.5 12.5t-9.5 27.5z" />
    <glyph glyph-name="four" unicode="4" horiz-adv-x="505" 
d="M302 277l-138 -9q-90 -5 -115 -6q-15 -1 -27 9.5t-13 26.5q-1 15 9 27q17 179 55 331q4 16 17.5 24t29 4t23.5 -17.5t4 -28.5q-35 -136 -51 -297q171 10 215 12q15 116 45 302q3 16 16 25t28.5 6.5t24.5 -15.5t7 -28q-29 -175 -43 -284l76 6q15 1 27 -9t13.5 -25.5
t-8.5 -27.5t-26 -14q-43 -4 -92 -7q-19 -162 -22 -300q0 -16 -11.5 -26.5t-27.5 -10.5t-26.5 11.5t-10.5 27.5q3 136 21 293z" />
    <glyph glyph-name="five" unicode="5" horiz-adv-x="598" 
d="M92 366q-15 -1 -26.5 8t-14.5 24q-24 151 -21 273q0 12 7 21q8 16 26 20q95 21 212 37q118 16 212 20q16 1 27.5 -10t12.5 -26.5t-10 -27t-26 -12.5q-183 -8 -385 -49q0 -81 12 -176q69 50 121 65q92 27 163 7t118 -68q48 -48 68 -115q12 -40 12 -79q0 -41 -12 -81
t-36 -75t-63 -64t-90 -46q-54 -18 -113 -19t-114 16q-51 16 -85.5 46t-65.5 77q-8 13 -5 28.5t16 24t28.5 5.5t24.5 -16q25 -39 49.5 -60t61.5 -33q88 -28 179 3q47 16 81 45t49 63t18.5 72t-8.5 72q-22 75 -90 114t-164 11q-12 -4 -25 -10t-22.5 -11t-25.5 -16l-22 -14
q-6 -5 -24.5 -19t-24.5 -18q-11 -8 -25 -7z" />
    <glyph glyph-name="six" unicode="6" horiz-adv-x="527" 
d="M184 133q65 -66 165 -50q54 8 82 58t20 113q-8 59 -43 87q-37 28 -97 5q-73 -29 -103 -92q-20 -45 -19 -101q0 -11 -5 -20zM302 693q-65 -14 -112.5 -66.5t-69.5 -126.5q-21 -73 -16 -157q3 -56 19 -103q6 22 17 46q43 90 143 130t171 -15q61 -47 73 -138q5 -39 -2.5 -80
t-26 -78t-54.5 -63.5t-83 -34.5q-150 -23 -244 87q-80 94 -89 245q-4 68 9.5 136t44 129t83.5 105t121 58q16 3 29 -5.5t16 -24t-5.5 -28.5t-23.5 -16z" />
    <glyph glyph-name="seven" unicode="7" horiz-adv-x="524" 
d="M70 713q37 -1 51.5 -0.5t51.5 3.5t56 4q48 2 137.5 2.5t119.5 1.5q16 0 27.5 -10.5t11.5 -26.5q1 -21 -17 -33q-8 -29 -19.5 -58t-29.5 -69l-23 -51q-62 -146 -101 -263t-54 -232q-2 -16 -14.5 -25.5t-28.5 -7.5t-25.5 14.5t-7.5 28.5q16 121 57 243q38 113 104 272
q8 19 20 46l24 52q9 23 16 43q-153 -1 -193 -3q-9 0 -56.5 -4t-75.5 -4l-1 -30q-1 -16 -12.5 -26.5t-27.5 -9.5t-26.5 12.5t-9.5 27.5l2 39q1 9 5 17q-1 6 -1 11q1 16 13 26.5t27 9.5z" />
    <glyph glyph-name="eight" unicode="8" horiz-adv-x="610" 
d="M184 431q-28 22 -45 52q-46 82 5 180q45 87 106 114q49 21 112 15q8 3 16 2q71 -8 120.5 -45t68.5 -87t10 -104q-12 -73 -68 -120q74 -74 95 -156t-14 -152q-36 -75 -121.5 -113t-198.5 -26q-96 11 -147 40q-56 32 -75 88t-6 117q10 56 42.5 106t77.5 77q11 7 22 12z
M400 709q-42 8 -65 8.5t-55 -10.5q-36 -15 -68 -78q-32 -62 -6 -109t97 -57q89 -13 140 21q51 33 59 86q7 43 -15.5 82t-72.5 57q-7 -2 -14 0zM328 382q-42 0 -70.5 -5.5t-55.5 -21.5q-30 -19 -54 -55.5t-32 -78.5q-17 -88 45 -124q36 -22 117 -30q94 -10 156 18
q64 28 88 78q11 23 12.5 49.5t-6.5 57t-30 64t-58 65.5q-46 -17 -101 -16q-6 -1 -11 -1z" />
    <glyph glyph-name="nine" unicode="9" horiz-adv-x="453" 
d="M453 706q6 -127 -10 -346q-18 -246 -18 -339q0 -16 -11 -27t-27 -11t-27 11t-11 27q0 101 16 311l-20 -16q-69 -49 -169 -26q-43 10 -74.5 31t-49.5 49t-26.5 61.5t-7 66.5t10.5 65q17 55 55 96.5t94.5 61t126.5 -4.5q46 -15 73 -35q0 11 -1 21q-1 16 10 27.5t26.5 12.5
t27 -10t12.5 -26zM368 580q-17 26 -35 39t-52 25q-62 21 -111 -10t-68 -93t4 -112.5t86 -64.5q68 -15 109 14q26 19 72 80q4 61 5 111q-6 4 -10 11z" />
    <glyph glyph-name="colon" unicode=":" horiz-adv-x="200" 
d="M201 454q0 -24 -17.5 -41.5t-41.5 -17.5t-41.5 17.5t-17.5 41.5t17.5 41.5t41.5 17.5t41.5 -17.5t17.5 -41.5zM193 40q0 -24 -17.5 -41.5t-41.5 -17.5t-41.5 17.5t-17.5 41.5t17.5 41.5t41.5 17.5t41.5 -17.5t17.5 -41.5z" />
    <glyph glyph-name="semicolon" unicode=";" horiz-adv-x="198" 
d="M186 120q4 -45 4 -84.5t-13 -81.5t-39 -81q-9 -13 -24.5 -16t-28.5 5.5t-16 24t5 28.5q29 44 37 92t-1 105q-2 15 8 27.5t25.5 14.5t28 -8t14.5 -26zM200 430q0 -25 -18 -43t-43 -18t-43 18t-18 43t18 43t43 18t43 -18t18 -43z" />
    <glyph glyph-name="less" unicode="&#x3c;" horiz-adv-x="580" 
d="M560 487q-37 -18 -124 -64.5t-135 -69.5l-120 -54l-47 -22l52 -18q104 -36 137 -49q14 -5 46 -18l49 -20q16 -6 41.5 -14.5t47.5 -13.5q15 -4 23.5 -17.5t4.5 -28.5t-17.5 -23.5t-28.5 -4.5q-25 6 -53 15.5t-46 16.5l-50 20l-45 18q-31 12 -133 47q-91 31 -137 52
q-15 7 -20.5 21.5t0.5 28.5q10 21 33 23q46 26 111 56l120 55q48 22 134 68t123 64q14 7 29 2t22 -19t2 -29t-19 -22z" />
    <glyph glyph-name="equal" unicode="=" horiz-adv-x="529" 
d="M66 378q26 1 85.5 7t91.5 7q37 2 123 1q78 -1 118 2q16 1 28 -9.5t13 -26t-9.5 -27.5t-25.5 -13q-44 -3 -124 -2q-84 1 -119 -1q-32 -1 -91.5 -6.5t-85.5 -7.5q-15 -1 -27 9.5t-13 26t9.5 27.5t26.5 13zM71 207q62 3 132 8t154.5 12t131.5 10q16 1 28 -9.5t13 -26
t-9.5 -27.5t-25.5 -13q-56 -4 -133 -10q-85 -7 -155 -12t-132 -8q-16 -1 -27.5 9.5t-12.5 26.5t9.5 27.5t26.5 12.5z" />
    <glyph glyph-name="greater" unicode="&#x3e;" horiz-adv-x="549" 
d="M87 481q253 -102 434 -147q15 -4 23.5 -17.5t4.5 -28.5q-3 -13 -14 -21t-24 -8q-212 -158 -435 -263q-14 -7 -29 -1.5t-21.5 19.5t-1 29t19.5 21q188 89 372 220q-147 42 -357 127q-15 6 -21 20.5t0 29t20.5 20.5t28.5 0z" />
    <glyph glyph-name="question" unicode="?" horiz-adv-x="543" 
d="M62 519q9 87 73.5 145.5t148.5 72.5q55 10 106.5 -2t93.5 -51.5t56 -103.5q20 -87 -49 -169q-44 -52 -126 -101q-2 -1 -14.5 -8t-20.5 -11l-18 -14q-2 -3 -3.5 -7t-2.5 -7.5t-1 -10.5v-10v-14v-15q0 -16 -11 -27t-27 -11t-27 11t-11 27q0 1 -0.5 14.5t0 21t2 21t5.5 25
t10 22.5q12 18 45 39q8 4 20.5 11t15.5 9q70 42 106 84q44 53 33 104q-13 58 -60 83.5t-109 14.5q-63 -10 -108.5 -51.5t-50.5 -99.5q-2 -15 -14 -25t-27.5 -8.5t-25.5 13.5t-9 28zM326 63q0 -25 -17.5 -42.5t-42.5 -17.5t-42.5 17.5t-17.5 42.5t17.5 42.5t42.5 17.5
t42.5 -17.5t17.5 -42.5z" />
    <glyph glyph-name="at" unicode="@" horiz-adv-x="842" 
d="M528 325q6 25 16 55l13 35q-17 57 -51 72q-31 14 -74 -5q-46 -21 -79 -67.5t-33 -95.5q0 -32 13.5 -53.5t34.5 -30.5q48 -21 96 21q18 15 60 65q2 3 4 4zM671 504q-3 -9 -23 -61t-32 -87q-16 -48 -22 -80q-5 -31 -2 -39q7 -16 36 -18q33 -3 53 11q46 33 69 105t16 141
q-5 56 -51 98q-46 43 -120 65q-73 22 -145 19q-72 -2 -121 -27q-61 -32 -106 -91t-69 -133q-21 -64 -10 -127q11 -62 53 -113q62 -78 157.5 -108t196 -11t184.5 80q13 9 28.5 6.5t24.5 -15.5t6.5 -28.5t-15.5 -24.5q-72 -51 -158.5 -77t-173 -23.5t-169 41.5t-141.5 112
q-53 67 -67.5 148.5t12.5 163.5q28 85 82 156.5t131 111.5q63 32 153 35t170 -22q89 -28 152 -85.5t72 -142.5q8 -84 -21 -176t-96 -140q-43 -30 -104 -25q-74 6 -98 63l-9 -8q-40 -34 -88 -42.5t-89 9.5q-42 19 -67.5 59.5t-25.5 94.5q0 73 46 138t111 94q73 33 136 6
q32 -15 56 -45q4 10 6 16q5 15 19 22t29 2t22 -19t2 -29z" />
    <glyph glyph-name="A" unicode="A" horiz-adv-x="624" 
d="M417 231q-34 72 -88.5 205t-76.5 182q-45 -179 -108 -393q79 7 273 6zM282 732q39 -78 82 -180l74 -181q30 -76 78 -168t102 -164q9 -13 6.5 -28.5t-15 -25t-28 -7t-25.5 14.5q-52 72 -101 162h-2q-19 0 -81 0.5t-90.5 0t-75.5 -2.5t-85 -6l-46 -151q-4 -15 -18 -22.5
t-29 -3t-22.5 18.5t-2.5 29q125 406 194 698q5 21 26 27q3 4 8 6q14 7 29 2t22 -19z" />
    <glyph glyph-name="B" unicode="B" horiz-adv-x="619" 
d="M236 315q-50 -15 -99 -19h-4q-6 -1 -12 -1q6 -132 14 -261q46 -7 117 -2t132 23q157 47 160 145q2 62 -38 96q-47 40 -170 32q-44 -3 -100 -13zM218 389q59 19 105 50q104 73 90 177q-7 53 -56 77q-42 21 -131 12q-55 -6 -118 -23q4 -158 10 -311q4 0 8 1q77 15 92 17z
M59 747q84 25 159 33q111 12 173 -19q86 -43 98 -135q16 -127 -88 -221q101 -5 155 -51q34 -29 50 -70.5t14 -85.5t-20.5 -80.5t-50 -62.5t-67 -43.5t-76.5 -29.5q-76 -22 -164 -26.5t-140 6.5q-13 2 -21 12q-19 10 -20 31q-22 331 -29 688q0 5 1 10q-3 14 4.5 27t21.5 17z
" />
    <glyph glyph-name="C" unicode="C" horiz-adv-x="714" 
d="M530 651q-20 24 -46 33t-73 12q-77 5 -148 -33t-117.5 -100.5t-68 -143.5t-6.5 -158q16 -78 78 -130.5t149 -69.5t168 6.5t128 84.5q17 20 26 44t20 67q4 15 18 23t29 4t23 -18t4 -29l-14 -47q-5 -17 -17.5 -44t-28.5 -48q-63 -79 -164.5 -108.5t-206.5 -9.5
q-106 21 -186 88.5t-100 172.5q-9 53 -6.5 107t20.5 107t44 101t65.5 88t84 68.5t99.5 43.5q54 14 111 10q59 -4 99 -18q41 -14 74 -55q10 -12 8.5 -27.5t-13.5 -25.5t-27.5 -8.5t-25.5 13.5z" />
    <glyph glyph-name="D" unicode="D" horiz-adv-x="640" 
d="M113 11q117 12 189 27q125 26 171 70q46 43 71 121t21 165q-3 89 -35 159.5t-86 102.5q-22 13 -44.5 22t-50 13.5t-48 6.5t-54.5 1.5t-51.5 -1.5t-58 -4t-55.5 -4q4 -69 12 -352q6 -209 19 -327zM47 764q20 1 78 5.5t93 5.5t86 -1.5t96 -15.5q43 -13 82 -36
q76 -46 116 -134t43 -191q4 -100 -26 -193.5t-90 -151.5q-61 -58 -207 -88q-78 -16 -214 -30h-9q-5 -2 -10 -3q-16 -2 -28.5 8t-14.5 25q-18 140 -24 372q-8 292 -13 367q-1 13 6 24q0 14 10.5 25t25.5 12z" />
    <glyph glyph-name="E" unicode="E" horiz-adv-x="540" 
d="M82 807q13 0 209 6q131 4 214 0q16 -1 26.5 -12.5t9.5 -27.5t-12.5 -26.5t-27.5 -9.5q-79 4 -207 0l-181 -6q0 -106 -2 -277q66 9 108 16q16 2 28.5 -7.5t15 -25t-7 -28t-24.5 -15.5l-121 -16q-2 -201 -2 -310q50 2 155 10q131 10 196 10q16 0 27 -11t11 -27t-11 -27
t-27 -11q-60 0 -190 -10t-196 -10q-13 0 -23.5 8t-13.5 21q-4 8 -4 17q0 119 2.5 358t2.5 358q0 13 8 23q3 13 13 21.5t24 8.5z" />
    <glyph glyph-name="F" unicode="F" horiz-adv-x="563" 
d="M122 413l98 15l109 16q15 2 27.5 -7.5t15 -25t-7 -28t-25.5 -15.5q-38 -5 -108 -16l-97 -15q-10 -1 -19 2q1 -9 2.5 -64.5t2.5 -71.5t3 -62t4 -71.5t5.5 -62.5t7.5 -69q2 -16 -8 -28.5t-25.5 -14.5t-28 8t-14.5 25q-9 74 -14 151t-8.5 190.5t-5.5 150.5q-1 27 -7 122
t-7 146q0 16 10.5 27.5t26.5 11.5q9 0 18 -4q198 41 447 54q16 1 27.5 -9.5t12.5 -26.5t-9.5 -27.5t-26.5 -12.5q-253 -16 -429 -51q2 -40 7 -116l6 -110l1 -14q4 2 9 3z" />
    <glyph glyph-name="G" unicode="G" horiz-adv-x="655" 
d="M451 633q-93 83 -174 52q-76 -29 -127 -140q-34 -72 -44.5 -153.5t5.5 -154t58 -113.5q47 -47 139 -69q94 -22 148 6q25 13 63 51q83 85 54 215q-1 4 -2 13q-7 1 -17 0q-31 0 -81 -6q-71 -9 -143 -21q-16 -3 -29 6t-15.5 24.5t6.5 28.5t24 15q74 14 148 22q54 7 88 7
q22 1 37 -1q24 -3 37 -14q17 -15 20 -42q1 -8 1 -11v-5q19 -75 1 -151t-75 -134q-46 -46 -83 -65q-79 -40 -200 -12q-113 27 -175 89q-57 57 -77.5 149t-7.5 185q13 91 51 173q65 139 169 179q124 48 251 -67q12 -10 13 -26t-9.5 -27.5t-26.5 -12.5t-27 10z" />
    <glyph glyph-name="H" unicode="H" horiz-adv-x="529" 
d="M530 739q-4 -78 -6.5 -158t-3.5 -173t-1.5 -152t0 -173t0.5 -158q0 -16 -11 -27t-27 -11t-27 11t-11 27v464q-46 -3 -99 -9l-115 -12l-99 -10q-11 -290 -11 -367q0 -16 -11 -27t-27 -11t-27 11t-11 27q0 72 12 379v14q-1 3 -1 6q-1 7 2 15q7 203 -2 339q-1 15 9.5 27
t26 13t27.5 -9.5t13 -26.5q8 -130 3 -313q32 3 96.5 10t115.5 12t97 8h2q3 151 10 278q1 16 12.5 26.5t27.5 9.5t26.5 -12.5t9.5 -27.5z" />
    <glyph glyph-name="I" unicode="I" horiz-adv-x="632" 
d="M32 723q38 0 109 6q107 9 113 9q28 2 132 5q82 2 127 8q15 2 27.5 -8t14.5 -25.5t-8 -28t-26 -14.5q-46 -5 -133 -8q-102 -3 -129 -5q10 -89 43 -358q2 -19 4 -40l4 -48q3 -25 5 -39q6 -64 14 -107h2q243 31 260 33q16 1 28 -8.5t13.5 -25.5t-8 -28t-25.5 -14
q-17 -2 -258 -32q-170 -21 -264 -23q-16 0 -27.5 10.5t-11.5 26.5t10.5 27.5t26.5 11.5q78 2 179 13q-9 44 -15 108q-1 14 -3 39l-5 47q-2 21 -5 39q-33 271 -42 362l-37 -3q-74 -6 -115 -6q-16 0 -27 11t-11 27t11 27t27 11z" />
    <glyph glyph-name="J" unicode="J" horiz-adv-x="731" 
d="M216 730q221 31 477 37q16 0 27.5 -10.5t11.5 -26.5t-10.5 -27.5t-26.5 -11.5q-107 -2 -204 -9q2 -74 2 -102.5t-2 -104t-2 -102.5q0 -16 0.5 -56.5t0 -66.5t-4 -62.5t-10.5 -65.5q-24 -90 -80 -137q-42 -35 -103 -45t-113 5q-59 15 -104.5 53.5t-59.5 95.5
q-6 26 -7 52.5t4 51t12 46.5t19 45l22 41q10 17 24 38q9 13 24.5 16t28.5 -5.5t16 -24t-5 -28.5q-42 -63 -59.5 -113t-4.5 -101q8 -33 37 -58q29 -24 72 -35q42 -11 82.5 -4.5t66.5 28.5q37 31 54 99q7 24 9.5 55t3 54t0 62.5t-0.5 59.5q0 30 2.5 102t2 100.5t-2.5 100.5
q-96 -8 -189 -22q-15 -2 -27.5 7.5t-15 25t7 28t25.5 15.5z" />
    <glyph glyph-name="K" unicode="K" horiz-adv-x="596" 
d="M173 752q-2 -29 -11 -89q-10 -65 -12 -85q-6 -50 -12 -159q48 31 104 71l94 69l104 81l96 73q12 10 28 8t25.5 -14.5t7.5 -28.5t-15 -25l-88 -69l-110 -83l-92 -68q41 -40 106.5 -121.5t75.5 -92.5q21 -25 61.5 -68.5t51.5 -56.5q11 -11 10 -27t-12.5 -26.5t-27.5 -9.5
t-26 13l-52 56l-63 69l-79 99q-67 83 -108 120l-97 -62q-2 -27 -16 -139q-12 -98 -16 -147q-1 -16 -13 -26t-28 -9t-26 13t-9 28q3 34 17 151q12 98 16 147q2 20 7 108t10 134q3 22 13 88q8 52 10 84q1 15 13 25.5t27.5 9.5t26 -13t9.5 -28z" />
    <glyph glyph-name="L" unicode="L" horiz-adv-x="562" 
d="M108 711q-6 -50 -7 -103t2.5 -108.5t7.5 -101t10.5 -110t9.5 -106.5q0 -4 0.5 -10.5t0.5 -15.5t1 -15q1 -29 4 -48q3 -24 9 -36h1l39 8l125 27l206 45q16 3 29 -5.5t16 -24t-5.5 -28.5t-23.5 -16l-206 -45l-125 -27l-40 -9l-11 -2l-3 -1h-1h-1v-1h-1q-7 0 -13 1
q-35 6 -54 44q-11 23 -16 58q-4 24 -5 56q0 6 -0.5 20t-1.5 19q-3 40 -9 104l-10 112q-5 47 -8.5 104.5t-2.5 113.5t7 109q2 16 14 25.5t28 8t25.5 -13.5t8.5 -28z" />
    <glyph glyph-name="M" unicode="M" 
d="M20 5q16 97 26 242q2 22 8 111q5 82 9 135q2 26 23 145q0 1 -1 1q0 3 -1 16q-1 15 3 26q9 26 36 31q17 2 31 -9q4 -3 6 -7q3 -3 5 -7l7 -14q6 -12 17 -38l25 -59q10 -24 74 -153l46 -93v-1q22 30 54 87l36 68l34 67q16 32 17 35q5 9 34 59l21 36q5 8 9 12q2 4 4 6
q3 4 7 6q5 4 11 6q17 6 32 -4q11 -6 15 -18q2 -3 3 -6q0 -4 1 -8q1 -6 1 -15q2 -15 3 -41q0 -5 3 -82q1 -26 3 -125q2 -100 6 -154q2 -25 13 -119q9 -77 9 -125q0 -16 -11 -27t-27 -11t-27 11t-11 27q0 44 -9 116q-11 96 -13 122q-4 55 -6 156.5t-3 126.5l-1 16
q-78 -154 -88 -171q-36 -64 -59 -97q-16 -22 -29 -34q-28 -24 -55 -15q-5 2 -9.5 5t-6.5 5l-1 2q-2 1 -3 4q-1 1 -3 4l-5 10l-17 31l-46 95l-74 152q-5 -30 -7 -57q-5 -57 -9 -135q-6 -88 -8 -111q-11 -148 -28 -248q-2 -16 -15 -25t-28.5 -6.5t-24.5 15.5t-6 28z" />
    <glyph glyph-name="N" unicode="N" horiz-adv-x="569" 
d="M125 723l203 -337l99 -170l40 -67q1 10 3 239q3 219 24 356q3 15 15.5 24.5t28 7t25 -15t7.5 -28.5q-21 -131 -24 -345q0 -23 -0.5 -85t-1 -94.5t-2 -82.5t-4.5 -91q1 -21 -16 -33q-12 -9 -27.5 -6.5t-25.5 15.5q-48 66 -108 167l-99 169l-155 259q-5 -56 -2 -146.5
t7 -146.5l11 -149q7 -92 10 -150q1 -16 -9.5 -27.5t-26.5 -12.5t-27.5 9.5t-12.5 26.5q-7 110 -11 167l-13 180q-5 72 -4 169.5t11 178.5q2 13 11 22t21 11h1q14 8 29 4t23 -18z" />
    <glyph glyph-name="O" unicode="O" horiz-adv-x="695" 
d="M431 754q13 6 26 1q85 -26 138.5 -86.5t78.5 -142.5q43 -144 5 -312q-25 -110 -75 -165q-32 -35 -75 -56.5t-89 -28.5t-89.5 -6t-86.5 10q-141 27 -210 145l-27 47q-9 17 -19.5 47.5t-13.5 59.5q-8 93 23 186.5t93 165.5t145 109t176 26zM439 676q-77 14 -147 -15
t-124 -91q-52 -61 -78.5 -140t-19.5 -155q3 -30 14 -56q11 -25 36 -68q27 -46 65 -72t93 -37q52 -8 100.5 -8t93.5 17q46 17 76 50q36 39 57 129q34 149 -4 274q-39 128 -147 172q-8 -2 -15 0z" />
    <glyph glyph-name="P" unicode="P" horiz-adv-x="544" 
d="M104 664q3 -56 13 -159.5t12 -131.5h1q65 9 91.5 13t73 16.5t79.5 30.5q36 20 61.5 56t32.5 75q14 81 -64 116q-115 52 -300 -16zM45 723q61 25 122 40t135.5 14t133.5 -27q65 -30 91.5 -84t15.5 -116q-10 -55 -46 -105t-87 -78q-12 -7 -26 -13.5t-25.5 -11t-28.5 -9.5
l-26 -8q-10 -3 -29.5 -6.5t-27 -5t-29 -5t-26 -4t-27.5 -3.5t-25 -4h-6q2 -23 6 -130t10 -164q1 -16 -8.5 -28t-25.5 -13.5t-28 8t-14 25.5q-6 58 -10 166.5t-6 138.5q-4 60 -15.5 183t-15.5 186l-2 4q-6 15 0 29.5t20 20.5z" />
    <glyph glyph-name="Q" unicode="Q" horiz-adv-x="737" 
d="M572 85q-39 -51 -89 -82t-113 -40t-133 17q-83 31 -137 86q-55 56 -77.5 123.5t-22.5 139.5t22 141q23 69 63.5 128t98 101.5t128 56t151.5 -7.5q3 -1 5 -2q11 0 20 -6q62 -41 95 -98t52 -136q30 -124 21 -213q-8 -74 -43 -144l110 -83q13 -10 15 -25.5t-8 -28
t-25.5 -14.5t-27.5 8zM443 674q-61 17 -115.5 6.5t-100 -43t-79.5 -81.5t-53 -109t-19.5 -119t18 -112.5t62 -97t107.5 -66.5q75 -24 138.5 -2.5t109.5 79.5l-152 108q-13 9 -15.5 24.5t6.5 28.5t24.5 15.5t28.5 -6.5l148 -105q23 51 29 107q8 75 -19 187q-16 67 -41 111
q-24 44 -69 74q-4 0 -8 1z" />
    <glyph glyph-name="R" unicode="R" horiz-adv-x="679" 
d="M115 689q13 -114 26 -253q4 1 71 18q68 17 106 31q112 41 143 115q20 47 -7 91q-35 59 -159 45q-84 -9 -180 -47zM216 377l7 -5q53 -40 55 -41q167 -118 380 -217q14 -6 19.5 -21t-1 -29t-21.5 -19.5t-29 1.5q-220 101 -392 223l-56 42q-16 12 -28 20l22 -285
q1 -16 -9 -28t-26 -13t-28 9t-13 26q-35 457 -58 659q-4 9 -3 20v2q-2 15 8 27.5t26 14.5q9 1 19 -3q106 41 198 52q173 19 234 -83q21 -35 24 -77.5t-13 -81.5q-43 -104 -187 -156q-42 -16 -114 -34z" />
    <glyph glyph-name="S" unicode="S" horiz-adv-x="608" 
d="M534 584q-14 54 -62 85t-107 30q-58 -1 -96 -33t-39 -92q-1 -48 47 -89q29 -25 128 -79q46 -26 73 -44t62.5 -51t49 -75t5.5 -93q-7 -43 -33 -76t-63.5 -52t-79 -28.5t-83.5 -10.5q-59 0 -113 15t-99.5 52t-60.5 90q-4 16 -5 54v48q0 16 11 27t27 11t27 -11t11 -27v-46
q1 -29 3 -36q12 -44 67.5 -72.5t131 -28t126 29t57.5 73.5q5 31 -2.5 56t-30.5 47.5t-49 39.5t-69 41q-3 2 -20 11t-22 12t-19.5 11t-22.5 13l-18 12q-12 8 -21 15t-17 14q-76 64 -74 149q1 64 33 110t77 67q46 21 100 22q81 2 152 -43q70 -45 92 -128q4 -16 -4 -29.5
t-23.5 -17.5t-29 4t-17.5 23z" />
    <glyph glyph-name="T" unicode="T" 
d="M-44 674q96 21 199.5 37.5t249.5 36.5l202 27q15 2 27.5 -7.5t15 -25t-7 -28t-25.5 -15.5l-171 -23l-157 -21q14 -106 29 -325q16 -227 29 -333q2 -16 -8 -28.5t-25.5 -14.5t-28 8t-14.5 25q-11 90 -28 338q-14 207 -30 319q-135 -21 -241 -44q-15 -3 -28.5 5.5
t-16.5 23.5t5.5 28.5t23.5 16.5z" />
    <glyph glyph-name="U" unicode="U" horiz-adv-x="599" 
d="M127 738q-1 -5 -5 -48.5t-6 -67t-5 -72t-3.5 -84t0.5 -80.5q2 -45 6 -85q13 -133 57 -197q45 -66 129 -52q50 9 92 81q40 68 70 188q11 41 19.5 85.5t15.5 90.5l11 77q5 32 10 75.5t6 54.5q2 15 14.5 25t28 8t25.5 -14.5t8 -28.5q-2 -10 -7 -53.5t-9 -76.5l-12 -79
q-7 -47 -16 -93t-20 -90q-33 -130 -78 -207q-61 -103 -146 -117q-131 -23 -204 84q-54 79 -70 231q-4 41 -5.5 89t-1 85.5t3.5 87.5t5.5 74t6.5 67.5t4 47.5q2 16 14 26t27.5 8.5t25.5 -13.5t9 -27z" />
    <glyph glyph-name="V" unicode="V" horiz-adv-x="612" 
d="M89 716q19 -62 73 -267q44 -166 77 -262l34 -95q30 64 34 74q130 341 233 579q6 15 21 20.5t29.5 -0.5t20 -21t-0.5 -29q-109 -255 -233 -577q-4 -13 -37 -84l-24 -51l-9 -17q-2 -4 -3 -6.5t-3 -4.5q-1 -2 -4 -4q-11 -12 -26 -12t-27 10q-3 3 -5 6t-3 6l-4 7q-3 7 -8 20
l-21 56l-36 99q-35 100 -79 266q-64 243 -71 265q-5 15 2.5 29t22.5 18.5t29 -3t18 -22.5z" />
    <glyph glyph-name="W" unicode="W" horiz-adv-x="791" 
d="M413 575q3 -29 8.5 -57.5t16.5 -62.5l16 -55q7 -20 23 -64l21 -57l41 -129l9 -28q2 9 4 16q50 219 90 353q10 34 39 117q25 72 36 113q5 15 18.5 23t28.5 3.5t23 -18t4 -28.5q-13 -44 -38 -118q-29 -82 -39 -114q-37 -122 -88 -347q-6 -25 -20 -69q-14 -42 -19 -62
q-4 -15 -17 -23.5t-29 -4.5q-13 3 -21 13.5t-8 24.5q-21 49 -46 126q-34 110 -40 126q-53 151 -57 167l-4 -17q-23 -109 -37 -157q-51 -170 -61 -244q-3 -15 -15.5 -24.5t-28.5 -7.5q-20 3 -29 23q-4 5 -5 11q-140 470 -197 706q-4 15 4.5 28.5t23.5 17.5t28.5 -4.5
t17.5 -23.5q53 -222 157 -572q7 26 33 112q12 40 35 150q21 100 40 157q4 12 13 19q10 13 27 15q16 1 28 -8.5t14 -25.5z" />
    <glyph glyph-name="X" unicode="X" horiz-adv-x="616" 
d="M272 391l-84 93l-100 108l-85 92q-11 12 -10 27.5t12.5 26.5t27 10t26.5 -12l262 -287q126 148 230 240q12 11 27.5 10t26 -13t9.5 -27.5t-13 -25.5q-103 -92 -230 -242q39 -48 115 -151q91 -124 123 -164q10 -13 8 -28.5t-14.5 -25.5t-28 -8t-25.5 14q-14 18 -124 168
q-63 86 -103 136l-60 -74q-35 -43 -92 -124q-64 -90 -96 -129q-10 -12 -25.5 -13.5t-27.5 8.5t-13.5 25.5t8.5 27.5q33 41 92 124q61 88 94 129z" />
    <glyph glyph-name="Y" unicode="Y" horiz-adv-x="590" 
d="M584 734q-41 -54 -105 -155q-74 -117 -96 -149q-1 -22 -12.5 -187.5t-11.5 -252.5q0 -16 -11 -27t-27 -11t-27 11t-11 27q0 63 4 133t10.5 157.5t8.5 132.5q-36 39 -133 117t-141 129q-10 12 -9 28t13 26t28 9t26 -13q40 -47 131 -120q81 -65 113 -96l81 127
q70 110 107 160q10 12 25.5 14.5t28 -7t15 -25t-6.5 -28.5z" />
    <glyph glyph-name="Z" unicode="Z" 
d="M642 662q-48 -64 -148 -163q-113 -112 -147 -152q-156 -188 -231 -303q19 1 56 3.5t55 3.5q59 3 193 2q122 -1 187 4q16 1 28 -9.5t13 -26t-9.5 -27.5t-25.5 -13q-71 -5 -194 -4q-132 1 -188 -2l-51 -3l-62 -4q-28 -1 -53 -1q-13 0 -23 8t-14 20q-8 9 -9.5 21.5t5.5 24.5
q81 135 265 354q40 49 151 158q64 63 99 103q-260 10 -490 -4q-16 -1 -28 9.5t-13 26t9.5 27.5t25.5 13q242 16 559 1q11 -1 21 -8q6 -1 12 -6q12 -9 14.5 -24.5t-7.5 -28.5z" />
    <glyph glyph-name="bracketleft" unicode="[" horiz-adv-x="291" 
d="M256 641h-18q-14 0 -35 -0.5t-37 -0.5q-33 -1 -51 -2h-5q-2 -15 -3 -42q0 -20 1 -50.5t1 -34.5q0 -15 -11 -504v-91v-47q15 0 40 3l53 6q33 3 38 4q16 1 28 -9t13 -26t-9 -28t-26 -13q-5 0 -37 -4t-53 -6q-35 -3 -56 -4q-14 0 -23 1q-20 1 -31 12q-8 6 -11 16q-1 2 -1 4
q-1 2 -1 4v2v1v1v2v5v8v11v57v93q11 488 11 502q0 5 -1 35.5t-1 50.5q1 33 4 53q6 38 27 53q9 7 26 9q9 1 22 2q20 1 55 2q16 0 36 0.5t33 0.5h18q16 1 27.5 -10t12.5 -26.5t-10 -27t-26 -12.5z" />
    <glyph glyph-name="backslash" unicode="\" horiz-adv-x="335" 
d="M-17 724q69 -97 128.5 -219.5t120.5 -269t100 -224.5q7 -14 2 -29t-19 -22t-29 -2t-22 19q-43 86 -103.5 231t-116.5 261.5t-123 210.5q-9 13 -6.5 28.5t15.5 24.5t28.5 6.5t24.5 -15.5z" />
    <glyph glyph-name="bracketright" unicode="]" horiz-adv-x="191" 
d="M142 -203h-122q-16 0 -27 11t-11 27t11 27t27 11h84q-1 164 0 380t9 379q-69 -5 -106 -5q-16 0 -27 11t-11 27t11 27t27 11q32 0 125 7q11 8 24 7q16 -1 26.5 -12.5t9.5 -27.5q-5 -80 -7.5 -162t-3.5 -178t-1.5 -156t0 -178t0.5 -162v-3v-3q0 -16 -11 -27t-27 -11z" />
    <glyph glyph-name="asciicircum" unicode="^" horiz-adv-x="410" 
d="M24 316q22 47 64 148l64 154q1 1 1 2t0.5 4.5t2.5 9.5q10 40 46 42q25 1 48 -24q12 -13 26 -38q23 -38 52 -104l48 -111q25 -57 31 -68q7 -14 2.5 -29t-18.5 -22.5t-29 -3t-23 18.5q-7 14 -33 74l-47 109q-26 59 -45 91l-60 -141l-60 -144q-7 -14 -21.5 -19.5t-29 1
t-20 21t0.5 29.5z" />
    <glyph glyph-name="underscore" unicode="_" horiz-adv-x="1024" 
d="M-27 -69q446 11 724 3q34 -1 145 -2q102 -1 148 -4q16 -1 26 -13t9 -28t-13 -26t-28 -9q-41 3 -143 4q-112 1 -146 2q-277 8 -720 -3q-16 0 -27.5 10.5t-11.5 26.5t10.5 27.5t26.5 11.5z" />
    <glyph glyph-name="grave" unicode="`" horiz-adv-x="180" 
d="M70 733l103 -135q10 -13 7.5 -28.5t-15 -25t-28 -7t-24.5 14.5l-103 135q-10 13 -7.5 28.5t15 25t28 7t24.5 -14.5z" />
    <glyph glyph-name="a" unicode="a" horiz-adv-x="532" 
d="M457 277q-96 26 -172 19q-99 -9 -133 -74q-6 -11 -10 -31l-3 -23q14 -36 83 -57q65 -20 123 -15q45 4 96 35q11 70 14 122q1 13 2 24zM110 511q35 47 89 73.5t109.5 28t107.5 -29.5t82 -92q44 -89 33 -243q-2 -28 -6 -62.5t-7 -57.5l-10 -61l-8 -51q-3 -15 -15.5 -24.5
t-28 -7t-25 15t-7.5 28.5l2 10q-37 -15 -75 -18q-74 -6 -152 18q-104 32 -130 102q-10 25 -2 66q7 31 17 52q55 101 194 114q80 7 177 -16q-5 61 -25 101q-25 51 -73 70t-99.5 2t-87.5 -64q-9 -12 -24.5 -14.5t-28 7t-15 25t7.5 28.5z" />
    <glyph glyph-name="b" unicode="b" horiz-adv-x="522" 
d="M137 307l36 -234q65 -7 122 12q127 43 149 127q9 34 -1.5 71t-36.5 69t-59.5 50t-67.5 18q-78 0 -127 -97q-5 -10 -15 -16zM100 47l-24 159l-26 170q-10 64 -21 155t-17 168q-1 16 9 28t26 13t28 -9t13 -26q10 -126 33 -290q65 81 158 81q53 0 102 -26.5t84 -69.5
q36 -44 51 -98.5t1 -108.5q-15 -59 -64.5 -105.5t-133.5 -74.5q-86 -29 -189 -10q-15 2 -24 15t-6 29z" />
    <glyph glyph-name="c" unicode="c" horiz-adv-x="492" 
d="M422 434q-20 34 -33.5 50.5t-33.5 26.5q-76 37 -139 -5q-61 -41 -91 -133q-18 -64 -16.5 -121.5t29 -105.5t74.5 -68q54 -23 103 6q39 23 85 89q9 13 24.5 15.5t28.5 -6.5t15.5 -24.5t-6.5 -28.5q-55 -79 -109 -111q-82 -49 -171 -10q-55 24 -90.5 69t-48 99.5
t-9.5 110.5q2 55 19 109q37 118 121 173q100 66 215 10q24 -12 45 -32.5t30 -33.5l24 -39q8 -14 4 -29t-17.5 -23.5t-28.5 -4.5t-24 17z" />
    <glyph glyph-name="d" unicode="d" horiz-adv-x="452" 
d="M367 755q39 -283 53 -442q2 -23 6 -74t6.5 -79t7.5 -69t12 -75q3 -16 -5.5 -29t-24 -16t-28.5 5.5t-16 23.5l-2 8q-36 -28 -79 -44q-117 -41 -194 19q-64 51 -79 154q-13 91 18 175q34 96 106 120q16 6 57 5q34 -1 50 -4q47 -9 80 -30q-6 56 -44 342q-2 15 7.5 27.5
t25 15t28 -7t15.5 -25.5zM335 287q-14 32 -35 49q-22 16 -59 23q-10 2 -37 2q-28 0 -32 -1q-37 -12 -59 -74q-24 -67 -13 -139q10 -73 50 -104q44 -35 121 -7q46 16 91 61q-5 41 -15 175q-8 6 -12 15z" />
    <glyph glyph-name="e" unicode="e" horiz-adv-x="466" 
d="M377 405q-8 16 -23 37q-18 25 -40 47q-18 19 -24 22q-101 52 -162 -30q-25 -33 -38 -81q48 -1 137 1.5t107 2.5q16 0 43 1zM78 324q0 -24 3 -46q8 -67 46 -105.5t89.5 -45t100.5 20.5q48 26 78 85q7 14 22 19t29 -2t19 -22t-2 -29q-39 -80 -109.5 -118.5t-146.5 -28.5
q-78 10 -134 67t-68 149q-8 67 8 137.5t54 121.5q29 38 66.5 59t87.5 20q49 0 103 -27q18 -9 45 -37q24 -25 47 -56q26 -35 37 -63q19 -49 -6 -78q-6 -8 -15 -11q-2 -1 -5 -2q-2 -1 -4 -1h-5q-4 -1 -9 -1q-10 0 -26 -1q-30 -1 -49 -1q-10 0 -107.5 -2.5t-148.5 -1.5z" />
    <glyph glyph-name="f" unicode="f" horiz-adv-x="468" 
d="M125 31q-1 36 -6 79t-14 106q-8 56 -13 96q-2 16 -4 30q-41 -3 -85 -5q-16 -1 -27.5 10t-12.5 26.5t10 27t26 12.5q45 2 83 4q-7 116 17 189q14 45 51 90q38 44 84 69q56 31 107 22q60 -10 97 -73q17 -30 25 -68.5t7 -69.5l-2 -64q-1 -15 -12.5 -26t-27 -10t-26.5 12.5
t-10 27.5q4 43 0 88q-3 44 -20 72q-19 32 -44 36q-25 5 -57 -13q-34 -18 -62 -51.5t-38 -63.5q-19 -61 -14 -161q49 5 95 12q15 2 27.5 -7.5t15 -25t-7 -28t-25.5 -15.5q-46 -6 -98 -11q1 -13 3 -26l13 -94q9 -64 14.5 -110.5t6.5 -84.5q0 -16 -10.5 -27.5t-26.5 -11.5
t-27.5 10.5t-11.5 26.5z" />
    <glyph glyph-name="g" unicode="g" horiz-adv-x="518" 
d="M410 410q-46 44 -97 54q-40 7 -74.5 -6t-54 -40.5t-25.5 -64.5t10 -78q4 -6 18 -18q16 -14 28 -22q60 -37 114 -14q53 22 88 91q3 6 8 10q-5 28 -10 60zM461 562q0 -6 29 -166q23 -130 28 -221q8 -131 -18 -211q-35 -110 -128 -140q-53 -17 -124 -10q-70 6 -122 34
q-67 36 -73 95q-8 65 64 132q12 11 27.5 10t26.5 -12.5t10 -27t-12 -26.5q-44 -41 -41 -67q2 -20 34 -37q38 -21 93.5 -26t92.5 7q56 18 79 90q22 68 15 185q-1 21 -3 39q-36 -40 -80 -59q-90 -38 -184 20q-18 11 -38 29q-30 26 -38 47q-16 47 -16.5 93t19.5 86t50.5 68.5
t76.5 41t98 2.5q34 -6 63 -20l-5 34q-2 16 8 28.5t25.5 14.5t28 -8t14.5 -25z" />
    <glyph glyph-name="h" unicode="h" horiz-adv-x="463" 
d="M109 704q-2 -61 6 -153q1 -17 4.5 -58t4.5 -63q66 87 170 83q39 -1 60 -12q23 -12 47 -43q55 -71 60 -246q2 -41 1 -133q-1 -78 2 -107q1 -16 -9 -28t-26 -13t-28 9t-13 26q-3 34 -2 114q1 90 0 129q-6 151 -45 203q-13 17 -21 21q-6 3 -28 4q-70 2 -112 -60
q-37 -54 -46 -138l3 -123q2 -81 2 -97t-10.5 -27.5t-26.5 -11.5t-27.5 10.5t-11.5 26.5q-1 21 -2.5 95.5t-2.5 115.5q-1 6 -1 12v2q-2 82 -6 147q-1 23 -3 49t-5 57.5t-4 49.5q-8 96 -6 161q0 16 11.5 26.5t27.5 10.5t26.5 -11.5t10.5 -27.5z" />
    <glyph glyph-name="i" unicode="i" horiz-adv-x="176" 
d="M167 513q0 -83 -10 -249t-10 -245q0 -16 -11 -27t-27 -11t-27 11t-11 27q0 84 10 249t10 245q0 16 11 27t27 11t27 -11t11 -27zM177 670q0 -23 -16 -39t-39 -16t-39 16t-16 39t16 39t39 16t39 -16t16 -39z" />
    <glyph glyph-name="j" unicode="j" horiz-adv-x="376" 
d="M345 594q2 -86 12.5 -244.5t13.5 -225.5q0 -12 2.5 -38.5t3.5 -46t0 -46t-5 -47.5q-6 -37 -17 -55q-12 -24 -41 -45q-62 -43 -123 -37.5t-103 48.5q-28 28 -38.5 65t1.5 79.5t48 78.5q11 11 27 11t27 -11t11 -27t-11 -27q-22 -22 -28.5 -44.5t-1 -40t18.5 -31.5
q23 -23 55.5 -26t70.5 22q16 12 21 21q4 8 9 33q3 37 3.5 50t-2.5 53t-4 59q-2 66 -13 225t-13 245q0 16 11 27.5t26.5 11.5t27 -11t11.5 -26zM357 729q0 -23 -16 -39t-39 -16t-39 16t-16 39t16 39t39 16t39 -16t16 -39z" />
    <glyph glyph-name="k" unicode="k" horiz-adv-x="449" 
d="M168 287l-35 -20q3 -135 8 -241q1 -16 -10 -27.5t-26.5 -12.5t-27 10t-12.5 26q-4 100 -6.5 211.5t-4.5 250.5l-3 212q0 16 11 27.5t26.5 11.5t27 -11t11.5 -26l3 -192q2 -126 2 -151q196 117 262 153q14 7 29 2.5t22.5 -18.5t3 -29t-18.5 -23q-73 -38 -196 -113
q133 -153 204 -259q8 -13 5 -28.5t-16 -24t-28.5 -5.5t-24.5 16q-69 104 -206 261z" />
    <glyph glyph-name="l" unicode="l" horiz-adv-x="191" 
d="M192 725q-2 -81 -6 -178.5t-7 -163.5t-9.5 -184t-8.5 -168q-1 -16 -12.5 -26.5t-27.5 -9.5t-26.5 12.5t-9.5 27.5q3 50 9 167.5t9 183.5t7 163t6 178q0 16 11.5 26.5t27.5 10.5t26.5 -11.5t10.5 -27.5z" />
    <glyph glyph-name="m" unicode="m" horiz-adv-x="675" 
d="M312 321q-2 6 -2 11v1v1q-8 56 -30 86q-28 37 -80 25q-25 -6 -48 -22.5t-35 -37.5q-11 -18 -12 -28q-1 -5 -1 -9t-0.5 -13t-0.5 -19v-2q0 -32 6 -297q0 -16 -10.5 -27.5t-26.5 -11.5t-27.5 10.5t-11.5 26.5q-1 26 -3 93.5t-2.5 104.5t-0.5 93.5t2 105.5t6 96q2 15 14 25
t27.5 8.5t25.5 -13.5t9 -28q-1 -7 -1 -15q34 25 73 34q44 10 86.5 -2.5t70.5 -50.5l2 -2q31 44 81.5 66t106 10t91.5 -60q63 -86 54 -244q-3 -42 -13 -123q-11 -87 -12 -107q-1 -16 -12.5 -26.5t-27.5 -9.5t-26.5 12.5t-9.5 27.5q2 36 12 113q11 78 13 117q7 131 -40 194
q-19 27 -52 32.5t-65 -11.5t-47 -51q-5 -12 -7 -20.5t-2 -18.5v-26q3 -20 3 -44q1 -25 0.5 -52.5t-3 -62.5t-2.5 -47q-1 -15 -12.5 -26t-27 -10t-26.5 12.5t-10 27.5q1 12 3 44.5t2.5 59.5t-0.5 51q0 16 -1 29z" />
    <glyph glyph-name="n" unicode="n" horiz-adv-x="437" 
d="M133 338q-32 -213 -39 -311q-1 -16 -13 -26t-28 -9t-26 13t-9 28q7 94 32.5 266.5t31.5 231.5q2 16 14.5 26t28 8t25.5 -14.5t8 -27.5q-3 -25 -7 -53q43 36 84 53q60 25 108 5q56 -22 78 -98q13 -41 17 -83.5t-2 -92.5t-10.5 -79t-18 -88t-16.5 -73q-3 -15 -16 -23.5
t-28.5 -5.5t-24 16t-5.5 29l17 76q12 58 16.5 83.5t9.5 70t2 79.5t-13 69q-13 41 -35 50q-19 8 -50 -6q-34 -14 -69.5 -45t-55.5 -62q-3 -4 -6 -7z" />
    <glyph glyph-name="o" unicode="o" horiz-adv-x="554" 
d="M300 533q-67 -3 -124 -50.5t-82 -114.5q-26 -72 -1 -125q26 -59 111 -77q78 -15 138.5 -1.5t96.5 49.5q23 23 33.5 53.5t5 74t-32.5 92.5q-3 7 -8 16.5t-6.5 13t-5 8.5t-7.5 8l-9 10q-11 9 -26 16t-26.5 10.5t-36.5 10.5q-6 1 -10 2zM354 596q69 -18 105 -50
q12 -10 21 -21t12 -16t11 -21t10 -18q48 -95 42 -174t-62 -135q-52 -52 -134 -70.5t-171 1.5q-122 26 -165 119q-37 82 0 183q34 93 118.5 158t187.5 57q15 -1 25 -13z" />
    <glyph glyph-name="p" unicode="p" horiz-adv-x="471" 
d="M98 347q-1 -55 -2 -103q2 -2 3 -4q4 -6 9.5 -15.5t7.5 -12.5l6 -9q4 -6 7.5 -9.5t8.5 -7.5l11 -10q38 -29 106 -24t103 46t39 101q3 59 -22 107t-62 61q-26 7 -60 0t-66 -23q-26 -14 -43 -33t-34 -51q-5 -8 -12 -13zM100 475q23 21 53 37q24 13 53 22q28 8 65 12t66 -7
q67 -23 103.5 -94t31.5 -150q-2 -40 -15.5 -76.5t-38 -67.5t-65.5 -51t-92 -24q-97 -7 -158 40l-8 6q-2 -141 -2 -263q0 -16 -11 -27t-27 -11t-27 11t-11 27q0 229 7 615q0 15 11.5 26t27.5 11q15 0 25.5 -10.5t11.5 -25.5z" />
    <glyph glyph-name="q" unicode="q" horiz-adv-x="582" 
d="M335 291l12 166q-8 8 -15 17l-12 14q-5 5 -12 9q-1 1 -27 4q-34 4 -70 -9.5t-65 -42.5q-29 -28 -42 -63t-6 -70q4 -21 24.5 -45t50.5 -40q61 -35 95 -7q11 8 21 18t24 26t22 23zM430 560l-32 -458q-1 -6 -1.5 -15t-2 -20.5t-2.5 -18.5q-3 -35 -3 -58q1 -57 22 -74
q26 -18 49.5 -13.5t37.5 24.5q9 11 10.5 24t-10 31t-39.5 34q-14 7 -18.5 22.5t3 29t23 18t28.5 -3.5q46 -25 68.5 -60.5t21 -71.5t-24.5 -67q-20 -29 -51.5 -44.5t-70.5 -12.5t-73 30q-51 40 -52 134q0 27 4 66q0 7 1.5 18t2.5 19t1 15l5 66q-6 -5 -11 -10
q-27 -21 -61 -25.5t-63 3t-57 22.5q-41 24 -72 60.5t-39 75.5q-12 57 8 110q20 54 61 94q39 39 91.5 59t106.5 14q43 -6 59 -16l4 -3v8q1 15 13 25.5t27.5 9.5t26 -13t9.5 -28z" />
    <glyph glyph-name="r" unicode="r" horiz-adv-x="371" 
d="M29 371l-7 150q-1 15 10 26.5t26.5 12.5t27 -10t12.5 -27v-3q40 48 87 71q71 35 124 -2q55 -37 63 -143q1 -16 -9 -28t-26 -13t-28 9t-13 26q-5 70 -30 87q-17 11 -48 -4q-38 -19 -71.5 -64t-41.5 -91q2 -39 9.5 -161t10.5 -189q1 -16 -9.5 -27.5t-26.5 -12.5t-27.5 9.5
t-12.5 26.5q-3 67 -10 189l-9 159q-1 5 -1 9z" />
    <glyph glyph-name="s" unicode="s" horiz-adv-x="446" 
d="M338 396l-6 16l-11 24q-10 20 -16 26q-22 20 -60.5 25t-77.5 -8q-38 -14 -57 -39t-13 -57q1 -11 7.5 -17.5t21.5 -11.5q17 -5 96 -16q29 -3 49 -7t49.5 -14.5t49.5 -25t39.5 -40.5t29.5 -60q20 -65 -8 -116q-33 -61 -103 -89t-138 -19q-77 10 -113 62q-42 60 -6 146
q6 15 20.5 21t29 0t20.5 -20.5t0 -28.5q-20 -49 -2 -75q17 -24 61 -30q49 -6 97 13.5t68 55.5q12 23 2 58q-15 47 -51 66t-103 28q-91 12 -112 19q-69 24 -80 89q-10 65 26 112t95 67q49 20 111.5 12.5t103.5 -44.5q17 -16 33 -50q3 -6 6.5 -14t6.5 -16.5t5 -11.5
q6 -14 0.5 -29t-20 -21t-29.5 -0.5t-21 20.5z" />
    <glyph glyph-name="t" unicode="t" horiz-adv-x="372" 
d="M121 405q-41 1 -78 1q-16 0 -27 11t-11 27t11 27t27 11q39 0 85 -1l19 173q2 15 14.5 25t28 8t25.5 -14.5t8 -28.5q-13 -106 -19 -165q29 -2 133 -6q15 -1 26 -12.5t10 -27t-12.5 -26.5t-27.5 -10q-109 5 -136 6q-18 -189 -26 -370q-1 -15 -12.5 -26t-27 -10t-26.5 12.5
t-10 27.5q8 178 26 368z" />
    <glyph glyph-name="u" unicode="u" horiz-adv-x="495" 
d="M496 464q-17 -172 -4 -429q1 -16 -9.5 -27.5t-26.5 -12.5t-27.5 9.5t-12.5 26.5q-2 41 -3 77q-11 -22 -24 -40q-33 -45 -84.5 -59.5t-105.5 -3.5q-52 11 -95 44q-42 33 -58 82q-15 45 -16 105q-1 59 9 120.5t21.5 111t26.5 97.5q4 15 18 22.5t29 3t22.5 -18.5t2.5 -29
q-14 -47 -25.5 -95t-20 -102.5t-7.5 -105t12 -85.5q9 -27 35.5 -47.5t62 -28t65.5 1t46 31.5q39 53 57 167q7 45 19 195q1 16 13 26t28 9q6 -1 12 -3h6q15 -2 25 -14t9 -28z" />
    <glyph glyph-name="v" unicode="v" horiz-adv-x="446" 
d="M37 460l80 -170q57 -124 92 -190l15 -28q5 15 6 16l42 108l56 136q23 55 47 105q6 14 21 19.5t29 -1t19.5 -21.5t-1.5 -29q-24 -51 -47 -105l-53 -133l-43 -107v-2l-2 -5q-1 -3 -2 -7l-11 -29q-8 -19 -15 -31q-6 -10 -13 -16q-14 -14 -33 -14q-14 0 -25 10q-4 3 -7 7
q-4 5 -8 12q-6 9 -14 26l-27 53q-36 66 -93.5 191t-80.5 171q-7 14 -2 29t19 22t29 2t22 -19z" />
    <glyph glyph-name="w" unicode="w" horiz-adv-x="665" 
d="M431 15l-4 6q-62 110 -127 246q-75 -179 -115 -259q-7 -14 -22 -19t-29 2q-18 9 -21 30q-2 4 -3 8l-34 109q-27 87 -39.5 130.5t-28 114t-21.5 126.5q-1 16 9 28t25.5 13.5t27.5 -8.5t14 -25q6 -59 23.5 -134.5t29.5 -117.5l42 -136q21 45 58 133l41 100q-3 27 22 39
q14 6 29 0.5t22 -19.5q65 -142 125 -255q64 240 138 406q7 15 21.5 20.5t29 -1t20 -21t-0.5 -28.5q-83 -186 -158 -487q-4 -15 -17.5 -23.5t-28.5 -4.5q-22 6 -28 27z" />
    <glyph glyph-name="x" unicode="x" horiz-adv-x="462" 
d="M215 264q-61 98 -154 232q-9 13 -6.5 28.5t15.5 24.5t28.5 6.5t24.5 -15.5q77 -110 139 -208l30 48l34 54q12 20 32 48t39 48q10 12 26 13t27.5 -9.5t12.5 -26.5t-10 -27q-34 -39 -84.5 -120.5t-62.5 -98.5q73 -119 141 -243q8 -13 3.5 -28.5t-18 -23t-29 -3t-22.5 18.5
l-123 212q-7 -8 -26 -33l-28 -36l-22 -31q-15 -20 -25.5 -37t-20.5 -35q-7 -14 -22 -18.5t-29 3t-18.5 22.5t3.5 29q13 26 33 55.5t35 49.5l41 53q26 34 36 48z" />
    <glyph glyph-name="y" unicode="y" horiz-adv-x="490" 
d="M190 544q-40 -103 -53 -169q-20 -104 9 -145q26 -36 97 -53q63 -15 97 3q34 17 60 78l4 6q11 123 11 277q0 16 11 27t27 11t27 -11t11 -27q0 -157 -12 -284q-18 -193 -61 -280q-16 -32 -47 -65.5t-67 -55.5q-28 -18 -55.5 -26.5t-61.5 -5t-62 25.5q-12 9 -23 25
q-1 1 -4.5 7t-6.5 10q-10 12 -8 27.5t14.5 25.5t28 8t25.5 -15q1 -1 14 -20q4 -6 6 -8q34 -26 92 10q28 17 52 43t35 48q19 38 33 105q-4 -2 -7 -4q-60 -31 -151 -9q-98 23 -141 83q-48 67 -21 203q15 75 55 181q6 15 20.5 21.5t29 1t21 -20t1.5 -28.5z" />
    <glyph glyph-name="z" unicode="z" horiz-adv-x="582" 
d="M496 473q-15 -40 -39 -78.5t-56 -75.5t-58 -64l-65 -65l-56 -55q-24 -26 -68 -78q72 -2 205.5 1.5t185.5 3.5q16 0 27 -11t11 -27t-11 -27t-27 -11q-55 0 -158.5 -2.5t-159.5 -3t-158 3.5q-16 1 -26.5 12.5t-9.5 27.5q1 20 18 31q12 13 52.5 60.5t64.5 71.5l63 64l67 67
q25 25 55 62.5t49 71.5q-166 -4 -302 -4q-16 0 -27 11t-11 27t11 27t27 11q156 0 356 5q24 1 35 -21q12 -17 5 -35z" />
    <glyph glyph-name="braceleft" unicode="{" horiz-adv-x="325" 
d="M284 690q-30 3 -51.5 -3t-44.5 -24q-36 -30 -40 -91q-1 -9 -1.5 -37t-2.5 -54t-7 -47q-15 -62 -91 -119q50 -29 77 -83q26 -53 30 -132q0 -13 1 -60q0 -32 2 -50q5 -44 25 -63q29 -25 106 -30q16 -1 26.5 -12.5t9.5 -27.5t-12.5 -26.5t-27.5 -9.5q-103 5 -153 50
q-42 38 -50 111q-2 21 -2 58q-1 45 -1 57q-3 63 -22 101q-10 20 -27 36t-36 22l-12 -1q-43 -2 -56 32q-9 26 10 46q7 9 21 14q1 1 3 2l6 2q2 1 3 1l2 1q32 23 45.5 33.5t29 29t19.5 36.5t5.5 37t1.5 44.5t2 44.5q7 93 68 143q64 54 152 45q16 -2 25.5 -14t8 -28t-13.5 -25.5
t-28 -8.5z" />
    <glyph glyph-name="bar" unicode="|" horiz-adv-x="126" 
d="M127 695q1 -55 -7 -142q-10 -112 -11 -135q-5 -159 10 -399q1 -16 -9.5 -28t-26 -13t-27.5 9.5t-13 25.5q-15 225 -10 407q1 38 11 140q8 83 7 133q0 16 11 27.5t26.5 11.5t27 -11t11.5 -26z" />
    <glyph glyph-name="braceright" unicode="}" horiz-adv-x="324" 
d="M264 236h1h-1zM10 721q81 -2 128 -43q40 -35 56 -99q9 -40 11 -109q3 -88 4 -100q3 -30 38 -47q10 -4 34 -12q11 -4 17 -7q22 -11 26 -32q3 -16 -6 -30l-7 -9q-5 -5 -13 -11q-10 -8 -32 -24l-32 -22q-4 -3 -7 -5.5t-4 -2.5l-1 -1q-3 -5 -11 -29q-14 -42 -12 -99
q0 -9 1 -31t1 -33t-1 -31q-5 -61 -46 -94q-43 -35 -137 -47q-16 -2 -28.5 8t-14.5 25.5t8 28t25 14.5q74 10 99 30q16 13 19 41v24q0 8 -1 28.5t-1 34.5q-2 71 16 125q12 35 22 50q7 9 27 25l26 18q-73 35 -81 107q-1 8 -4 106q-2 61 -9 94q-10 40 -32 59q-27 23 -80 24
q-16 0 -26.5 11.5t-10.5 27.5t11.5 26.5t27.5 10.5z" />
    <glyph glyph-name="asciitilde" unicode="~" horiz-adv-x="555" 
d="M-31 164q56 129 125 158q58 24 136 -19q12 -6 48.5 -28t57.5 -31q52 -21 95 1q22 12 32 25.5t18 44.5q5 15 18.5 23t28.5 3.5t23 -18t4 -28.5q-12 -43 -31 -70t-59 -48q-74 -38 -158 -4q-18 8 -39 20l-44 25q-22 14 -31 19q-45 25 -70 14q-41 -16 -84 -117
q-6 -15 -21 -20.5t-29.5 0.5t-20 21t0.5 29z" />
    <glyph glyph-name="quoteleft" unicode="&#x2018;" horiz-adv-x="232" 
d="M201 659q-65 -10 -81 -74q-7 -30 -0.5 -65t24.5 -63q8 -14 5 -29t-16.5 -23.5t-28.5 -5.5t-24 16q-27 42 -36 91.5t2 96.5q13 51 49 86.5t94 45.5q16 2 28.5 -7t15 -25t-6.5 -28.5t-25 -15.5z" />
    <glyph glyph-name="quoteright" unicode="&#x2019;" horiz-adv-x="185" 
d="M132 737q58 -69 55 -145q-3 -66 -52 -141q-9 -13 -24.5 -16t-28.5 5.5t-16 24t5 28.5q38 57 40 102q2 47 -37 94q-10 12 -8.5 27.5t13.5 25.5t27.5 8.5t25.5 -13.5z" />
    <glyph glyph-name="quotedblleft" unicode="&#x201c;" horiz-adv-x="349" 
d="M207 677q-64 -45 -83.5 -104.5t7.5 -131.5q6 -15 0 -29.5t-21 -20t-29.5 0.5t-19.5 21q-37 99 -9.5 183t111.5 143q13 9 28.5 6.5t24.5 -15.5t6.5 -28.5t-15.5 -24.5zM331 655q-55 -32 -77 -72q-23 -41 -15 -99q2 -16 -8 -28.5t-25.5 -14.5t-28 8t-14.5 25
q-20 160 130 247q14 8 29 4t23 -18t4 -29t-18 -23z" />
    <glyph glyph-name="quotedblright" unicode="&#x201d;" horiz-adv-x="281" 
d="M129 716q73 -123 6 -227q-9 -13 -24 -16t-28.5 5.5t-16.5 23.5t5 29q23 37 20.5 70t-28.5 75q-8 14 -4 29t17.5 23.5t28.5 4.5t24 -17zM244 769q91 -214 -32 -373q-10 -13 -25.5 -15t-28 8t-14.5 25.5t8 27.5q96 124 22 297q-6 15 0 29.5t20.5 20.5t29 0t20.5 -20z" />
    <glyph glyph-name="uni3000" unicode="&#x3000;" horiz-adv-x="1000" 
 />
  </font>
</defs>
</svg>
